/* XPM */
static char *result[] = {
/* columns rows colors chars-per-pixel */
"64 64 8 1 ",
"  c black",
". c #656C17",
"X c #72751B",
"o c #787B21",
"O c #DF7126",
"+ c #7F8226",
"@ c #D9A066",
"# c #EEC39A",
/* pixels */
"XXXXXXXXXXXX                XXXXXXXXXXXXXXXXXXXXXXXXXXXXXXXXXXXX",
"XXXXXXXXXXXX                XXXXXXXXXXXXXXXXXXXXXXXXXXXXXXXXXXXX",
"XXXXXXXXXXXX                XXXXXXXXXXXXXXXXXXXXXXXXXXXXXXXXXXXX",
"XXXXXXXXXXXX                XXXXXXXXXXXXXXXXXXXXXXXXXXXXXXXXXXXX",
"XXXXXXXX    ################    XXXXXXXXXXXXXXXXXXXXXXXXXXXXXXXX",
"XXXXXXXX    ################    XXXXXXXXXXXXXXXXXXXXXXXXXXXXXXXX",
"XXXXXXXX    ################    XXXXXXXXXXXXXXXXXXXXXXXXXXXXXXXX",
"XXXXXXXX    ################    XXXXXXXX+XXXXXXXXXXXXXXXXXXXXXXX",
"XXXX    @@@@@@@@@@@@@@@@@@@@####    XXXXooXXXXXXXXXXXXXXXXXXXXXX",
"XXXX    @@@@@@@@@@@@@@@@@@@@####    ++oX.oXXXXXXXXXXXXXXXXXXXXXX",
"XXXX    @@@@@@@@@@@@@@@@@@@@####    X+oo..X++oXXXXXXXXXXXXXXXXXX",
"XXXX    @@@@@@@@@@@@@@@@@@@@####    X.ooX.oo+XXXXXXXXXXXXXXXXXXX",
"XXXX    @@@@####        @@@@####    oo.oXoooXXXXXXXXXXXXXXXXXXXX",
"XXXX    @@@@####        @@@@####    ooX..oo.XXXXXXXXXXXXXXXXXXXX",
"XXXX    @@@@####        @@@@####    .oXX...XXXXXXXXXXXXXXXXXXXXX",
"XXXX    @@@@####        @@@@####    X.XooXXXXXXXXXXXXXXXXXXXXXXX",
"XXXX    OOOO####        @@@@####    XXX+.XXXXXXXXXXXXXXXXXXXXXXX",
"XXXX    OOOO####        @@@@####    XXX.XXXXXXXXXXXXXXXXXXXXXXXX",
"XXXX    OOOO####        @@@@####    XXXXXXXXXXXXXXXXXXXXXXXXXXXX",
"XXXX    OOOO####        @@@@####    XXXXXXXXXXXXXXXXXXXXXXXXXXXX",
"XXXX    OOOO@@@@########@@@@####    XXXXXXXXXXXXXXXXXXXXXXXXXXXX",
"XXXX    OOOO@@@@########@@@@####    XXXXXXXXXXXXXXXXXXXXXXXXXXXX",
"XXXX    OOOO@@@@########@@@@####    XXXXXXXXXXXXXXXXXXXXXXXXXXXX",
"XXXX    OOOO@@@@########@@@@####    XXXXXXXXXXXXXXXXXXXXXXXXXXXX",
"XXXXXXXX    OOOOOOOO@@@@@@@@@@@@####    XXXXXXXXXXXXXXXXXXXXXXXX",
"XXXXXXXX    OOOOOOOO@@@@@@@@@@@@####    XXXXXXXXXXXXXXXXXXXXXXXX",
"XXXXXXXX    OOOOOOOO@@@@@@@@@@@@####    XXXXXXXXXXXXXXXXXXXXXXXX",
"XXXXXXXX    OOOOOOOO@@@@@@@@@@@@####    XXXXXXXXXXXXXXXXXXXXXXXX",
"XXXXXXXXXXXX                OOOO@@@@####    XXXXXXXXXXXXXXXXXXXX",
"XXXXXXXXXXXX                OOOO@@@@####    XXXXXXXXXXXXXXXXXXXX",
"XXXXXXXXXXXX                OOOO@@@@####    XXXXXXXXXXXXXXXXXXXX",
"XXXXXXXXXXXX                OOOO@@@@####    XXXXXXXXXXXXXXXXXXXX",
"XXXXXXXXXXXXXXXXXXXXXXXXXXXX    OOOO@@@@####    XXXXXXXXXXXXXXXX",
"XXXXXXXXXXXXXXXXXXXXXXXXXXXX    OOOO@@@@####    XXXXXXXXXXXXXXXX",
"XXXXXXXXXXXXXXXXXXXXXXXXXXXX    OOOO@@@@####    XXXXXXXXXXXXXXXX",
"XXXXXXXXXXXXXXXXXXXXXXXXXXXX    OOOO@@@@####    XXXXXXXXXXXXXXXX",
"XXXXXXXXXXXXXXXXXXXXXXXXXXXXXXXX    OOOO@@@@####    XXXXXXXXXXXX",
"XXXXXXXXXXXXXXXXXXXXXXXXXXXXXXXX    OOOO@@@@####    XXXXXXXXXXXX",
"XXXXXXXXXXXXXXXXXXXXXXXXXXXXXXXX    OOOO@@@@####    XXXXXXXXXXXX",
"XXXXXXXXXXXXXXXXXXXXXXXXXXXXXXXX    OOOO@@@@####    XXXXXXXXXXXX",
"XXXXXXXXXXXXXXXXXXXXXXXXXXXXXXXXXXXX    OOOO@@@@####    X+XXXXXX",
"XXXXXXXXXXXXXXXXXXXXXXXXXXXXXXXXXXXX    OOOO@@@@####    XooXXXXX",
"XXXXXXXXXXXXXXXXXXXXXXXXXXXXXXXXXXXX    OOOO@@@@####    X.oXX+XX",
"XXXXXXXXXXXXXXXXXXXXXXXXXXXXXXXXXXXX    OOOO@@@@####    o.Xoo.XX",
"XXXXXXXXXXX+XXXXXXXXXXXXXXXXXXXXXXXXXXXX    @@@@@@@@####    o.XX",
"XXXXXX++oXXooXXXXXXXXXXXXXXXXXXXXXXXXXXX    @@@@@@@@####    .XXX",
"XXXXXXX+ooX.oXX+XXXXXXXXXXXXXXXXXXXXXXXX    @@@@@@@@####    XXXX",
"XXXXXXX.ooo.Xoo.XXXXXXXXXXXXXXXXXXXXXXXX    @@@@@@@@####    XXXX",
"XXXXXX+o.ooXXoo.XXXXXXXXXXXXXXXXXXXX    @@@@@@@@OOOO@@@@    XXXX",
"XXXXXX.oo.oXX..XXXXXXXXXXXXXXXXXXXXX    @@@@@@@@OOOO@@@@    XXXX",
"XXXXXXX.o..XXXXXXXXXXXXXXXXXXXXXXXXX    @@@@@@@@OOOO@@@@    XXXX",
"XXXXXXXXXXXXXXXXXXXXXXXXXXXXXXXXXXXX    @@@@@@@@OOOO@@@@    XXXX",
"XXXXXXXXXXXXXXXXXXXXXXXXXXXXXXXX    OOOO@@@@OOOO        XXXXXXXX",
"XXXXXXXXXXXXXXXXXXXXXXXXXXXXXXXX    OOOO@@@@OOOO        XXXXXXXX",
"XXXXXXXXXXXXXXXXXXXXXXXXXXXXXXXX    OOOO@@@@OOOO        XXXXXXXX",
"XXXXXXXXXXXXXXXXXXXXXXXXXXXXXXXX    OOOO@@@@OOOO        XXXXXXXX",
"XXXXXXXXXXXXXXXXXXXXXXXXXXXXXXXXXXXX    OOOO    XXXXXXXXXXXXXXXX",
"XXXXXXXXXXXXXXXXXXXXXXXXXXXXXXXXXXXX    OOOO    XXXXXXXXXXXXXXXX",
"XXXXXXXXXXXXXXXXXXXXXXXXXXXXXXXXXXXX    OOOO    XXXXXXXXXXXXXXXX",
"XXXXXXXXXXXXXXXXXXXXXXXXXXXXXXXXXXXX    OOOO    XXXXXXXXXXXXXXXX",
"XXXXXXXXXXXXXXXXXXXXXXXXXXXXXXXXXXXXXXX.    oXXXXXXXXXXXXXXXXXXX",
"XXXXXXXXXXXXXXXXXXXXXXXXXXXXXXXXXXXXXXXX    .XXXXXXXXXXXXXXXXXXX",
"XXXXXXXXXXXXXXXXXXXXXXXXXXXXXXXXXXXXXXXX    XXXXXXXXXXXXXXXXXXXX",
"XXXXXXXXXXXXXXXXXXXXXXXXXXXXXXXXXXXXXXXX    XXXXXXXXXXXXXXXXXXXX"
};
