/* XPM */
static char *result[] = {
/* columns rows colors chars-per-pixel */
"64 64 17 1 ",
"  c #2C4D32",
". c #315334",
"X c #345734",
"o c #3E6337",
"O c #656C17",
"+ c #72751B",
"@ c #497039",
"# c #517A3B",
"$ c #787B21",
"% c #B5753A",
"& c #C27E3E",
"* c #7F8226",
"= c #EBA434",
"- c #F2AE34",
"; c #F5B133",
": c #FABB37",
"> c #FCBE38",
/* pixels */
"++++++++++++++++++++++++++++++++++++++++++++++++++++++++++++++++",
"++++++++++++++++++++++++++++++++++++++++++++++++++++++++++++++++",
"++++++++++++++++++++++++++++++++++++++++++++++++++++++++++++++++",
"++++++++++++++++++++++++++++++++++++++++++++++++++++++++++++++++",
"++++++++++++&&&&&&&&>>>>&&&&&&&&++++++++++++++++++++++++++++++++",
"++++++++++++&&&&&&&&>>>>&&&&&&&&++++++++++++++++++++++++++++++++",
"++++++++++++&&&&&&&&>>>>&&&&&&&&++++++++++++++++++++++++++++++++",
"++++++++++++&&&&&&&&>>>>&&&&&&&&++++++++*+++++++++++++++++++++++",
"++++++++&&&&>>>>;;;;>>>>;;;;>>>>&&&&++++$$++++++++++++++++++++++",
"++++++++&&&&>>>>;;;;>>>>;;;;>>>>&&&&**$+O$++++++++++++++++++++++",
"++++++++&&&&>>>>;;;;>>>>;;;;>>>>&&&&+*$$OO+**$++++++++++++++++++",
"++++++++&&&&>>>>;;;;>>>>;;;;>>>>&&&&+O$$+O$$*+++++++++++++++++++",
"++++>>>>====>>>>>>>>;;;;>>>>>>>>;;;;>>>>+$$$++++++++++++++++++++",
"++++>>>>====>>>>>>>>;;;;>>>>>>>>;;;;>>>>O$$O++++++++++++++++++++",
"++++>>>>====>>>>>>>>;;;;>>>>>>>>;;;;>>>>OOO+++++++++++++++++++++",
"++++>>>>====>>>>>>>>;;;;>>>>>>>>;;;;>>>>$+++++++++++++++++++++++",
"++++&&&&;;;;====>>>>;;;;>>>>====;;;;&&&&O+++++++++++++++++++++++",
"++++&&&&;;;;====>>>>;;;;>>>>====;;;;&&&&++++++++++++++++++++++++",
"++++&&&&;;;;====>>>>;;;;>>>>====;;;;&&&&++++++++++++++++++++++++",
"++++&&&&;;;;====>>>>;;;;>>>>====;;;;&&&&++++++++++++++++++++++++",
"++++++++&&&&>>>>;;;;>>>>====>>>>&&&&++++%%%%----%%%%++++++++++++",
"++++++++&&&&>>>>;;;;>>>>====>>>>&&&&++++%%%%----%%%%++++++++++++",
"++++++++&&&&>>>>;;;;>>>>====>>>>&&&&++++%%%%----%%%%++++++++++++",
"++++++++&&&&>>>>;;;;>>>>====>>>>&&&&++++%%%%----%%%%++++++++++++",
"++++++++++++&&&&&&&&>>>>&&&&&&&&++++%%%%----::::----%%%%++++++++",
"++++++++++++&&&&&&&&>>>>&&&&&&&&++++%%%%----::::----%%%%++++++++",
"++++++++++++&&&&&&&&>>>>&&&&&&&&++++%%%%----::::----%%%%++++++++",
"++++++++++++&&&&&&&&>>>>&&&&&&&&++++%%%%----::::----%%%%++++++++",
"++++++++XXXX####oooooooooooo@@@@....----::::::::====::::%%%%++++",
"++++++++XXXX####oooooooooooo@@@@....----::::::::====::::%%%%++++",
"++++++++XXXX####oooooooooooo@@@@....----::::::::====::::%%%%++++",
"++++++++XXXX####oooooooooooo@@@@....----::::::::====::::%%%%++++",
"++++++++XXXXXXXX@@@@@@@@@@@@........%%%%----========::::::::++++",
"++++++++XXXXXXXX@@@@@@@@@@@@........%%%%----========::::::::++++",
"++++++++XXXXXXXX@@@@@@@@@@@@........%%%%----========::::::::++++",
"++++++++XXXXXXXX@@@@@@@@@@@@........%%%%----========::::::::++++",
"++++++++++++++++....@@@@....++++    oooo%%%%----::::----%%%%++++",
"++++++++++++++++....@@@@....++++    oooo%%%%----::::----%%%%++++",
"++++++++++++++++....@@@@....++++    oooo%%%%----::::----%%%%++++",
"++++++++++++++++....@@@@....++++    oooo%%%%----::::----%%%%++++",
"++++++++++++++++....####....++++    @@@@oooo%%%%::::%%%%+*++++++",
"++++++++++++++++....####....++++    @@@@oooo%%%%::::%%%%+$$+++++",
"++++++++++++++++....####....++++    @@@@oooo%%%%::::%%%%+O$++*++",
"++++++++++++++++....####....++++    @@@@oooo%%%%::::%%%%$O+$$O++",
"+++++++++++*++++++++....####....    @@@@    oooo    *$O$$++$$O++",
"++++++**$++$$+++++++....####....    @@@@    oooo    O$$O$++OO+++",
"+++++++*$$+O$++*++++....####....    @@@@    oooo    +O$OO+++++++",
"+++++++O$$$O+$$O++++....####....    @@@@    oooo    ++++++++++++",
"++++++*$O$$++$$O++++....####....    @@@@            ++++++++++++",
"++++++O$$O$++OO+++++....####....    @@@@            ++++++++++++",
"+++++++O$OO+++++++++....####....    @@@@            ++++++++++++",
"++++++++++++++++++++....####....    @@@@            ++++++++++++",
"++++++++++++++++++++....@@@@....@@@@    ++++++++++++++++++++++++",
"++++++++++++++++++++....@@@@....@@@@    ++++++++++++++++++++++++",
"++++++++++++++++++++....@@@@....@@@@    ++++++++++++++++++++++++",
"++++++++++++++++++++....@@@@....@@@@    ++++++++++++++++++++++++",
"++++++++++++++++++++....oooo....@@@@    ++++++++++++++++++++++++",
"++++++++++++++++++++....oooo....@@@@    ++++++++++++++++++++++++",
"++++++++++++++++++++....oooo....@@@@    $+++**++++++++++++++++++",
"++++++++++++++++++++....oooo....@@@@    $++$*+++++++++++++++++++",
"++++++++++++++++++++++++++++    @@@@    O+$$$+++++++++++++++++++",
"++++++++++++++++++++++++++++    @@@@    ++$$O+++++++++++++++++++",
"++++++++++++++++++++++++++++    @@@@    ++OO++++++++++++++++++++",
"++++++++++++++++++++++++++++    @@@@    ++++++++++++++++++++++++"
};
