/* XPM */
static char *result[] = {
/* columns rows colors chars-per-pixel */
"64 64 12 1 ",
"  c black",
". c #656C17",
"X c #72751B",
"o c #787B21",
"O c #5B4141",
"+ c #F7767A",
"@ c #7F8226",
"# c #C28569",
"$ c #B55088",
"% c #E8B796",
"& c #C0CBDC",
"* c white",
/* pixels */
"XXXXXXXXXXXXXXXXXXXXXXXXXXXXXXXXXXXXXXXXXXXXXXXXXXXXXXXXXXXXXXXX",
"XXXXXXXXXXXXXXXXXXXXXXXXXXXXXXXXXXXXXXXXXXXXXXXXXXXXXXXXXXXXXXXX",
"XXXXXXXXXXXXXXXXXXXXXXXXXXXXXXXXXXXXXXXXXXXXXXXXXXXXXXXXXXXXXXXX",
"XXXXXXXXXXXXXXXXXXXXXXXXXXXXXXXXXXXXXXXXXXXXXXXXXXXXXXXXXXXXXXXX",
"XXXX            XXXXXXXXXXXXXXXXXXXXXXXXXXXX            XXXXXXXX",
"XXXX            XXXXXXXXXXXXXXXXXXXXXXXXXXXX            XXXXXXXX",
"XXXX            XXXXXXXXXXXXXXXXXXXXXXXXXXXX            XXXXXXXX",
"XXXX            XXXXXXX@XXXXXXXXXXXXXXXXXXXX            XXXXXXXX",
"    ++++++++$$$$                            $$$$++++++++    XXXX",
"    ++++++++$$$$                            $$$$++++++++    XXXX",
"    ++++++++$$$$                            $$$$++++++++    XXXX",
"    ++++++++$$$$                            $$$$++++++++    XXXX",
"    $$$$    ++++++++%%%%############%%%%++++++++    $$$$    XXXX",
"    $$$$    ++++++++%%%%############%%%%++++++++    $$$$    XXXX",
"    $$$$    ++++++++%%%%############%%%%++++++++    $$$$    XXXX",
"    $$$$    ++++++++%%%%############%%%%++++++++    $$$$    XXXX",
"    $$$$$$$$    ++++%%%%%%%%%%%%%%%%%%%%++++    $$$$$$$$    XXXX",
"    $$$$$$$$    ++++%%%%%%%%%%%%%%%%%%%%++++    $$$$$$$$    XXXX",
"    $$$$$$$$    ++++%%%%%%%%%%%%%%%%%%%%++++    $$$$$$$$    XXXX",
"    $$$$$$$$    ++++%%%%%%%%%%%%%%%%%%%%++++    $$$$$$$$    XXXX",
"XXXX    $$$$    %%%%%%%%%%%%%%%%%%%%%%%%%%%%    $$$$    XXXXXXXX",
"XXXX    $$$$    %%%%%%%%%%%%%%%%%%%%%%%%%%%%    $$$$    XXXXXXXX",
"XXXX    $$$$    %%%%%%%%%%%%%%%%%%%%%%%%%%%%    $$$$    XXXXXXXX",
"XXXX    $$$$    %%%%%%%%%%%%%%%%%%%%%%%%%%%%    $$$$    XXXXXXXX",
"XXXXXXXX    ####****    %%%%####%%%%    ****####    XXXXXXXXXXXX",
"XXXXXXXX    ####****    %%%%####%%%%    ****####    XXXXXXXXXXXX",
"XXXXXXXX    ####****    %%%%####%%%%    ****####    XXXXXXXXXXXX",
"XXXXXXXX    ####****    %%%%####%%%%    ****####    XXXXXXXXXXXX",
"XXXXXXXX    %%%%        %%%%++++%%%%        %%%%    XXXXXXXXXXXX",
"XXXXXXXX    %%%%        %%%%++++%%%%        %%%%    XXXXXXXXXXXX",
"XXXXXXXX    %%%%        %%%%++++%%%%        %%%%    XXXXXXXXXXXX",
"XXXXXXXX    %%%%        %%%%++++%%%%        %%%%    XXXXXXXXXXXX",
"XXXXXXXX    %%%%%%%%********    ********%%%%%%%%    XXXXXXXXXXXX",
"XXXXXXXX    %%%%%%%%********    ********%%%%%%%%    XXXXXXXXXXXX",
"XXXXXXXX    %%%%%%%%********    ********%%%%%%%%    XXXXXXXXXXXX",
"XXXXXXXX    %%%%%%%%********    ********%%%%%%%%    XXXXXXXXXXXX",
"XXXXXXXX    %%%%****&&&&            &&&&****%%%%    XXXXXXXXXXXX",
"XXXXXXXX    %%%%****&&&&            &&&&****%%%%    XXXXXXXXXXXX",
"XXXXXXXX    %%%%****&&&&            &&&&****%%%%    XXXXXXXXXXXX",
"XXXXXXXX    %%%%****&&&&            &&&&****%%%%    XXXXXXXXXXXX",
"XXXX    %%%%####    &&&&&&&&&&&&&&&&&&&&    ####%%%%    XXXXXXXX",
"XXXX    %%%%####    &&&&&&&&&&&&&&&&&&&&    ####%%%%    XXXXXXXX",
"XX@X    %%%%####    &&&&&&&&&&&&&&&&&&&&    ####%%%%    XXXXXXXX",
"XX.o    %%%%####    &&&&&&&&&&&&&&&&&&&&    ####%%%%    XXXXXXXX",
"XX.o    %%%%%%%%++++    &&&&&&&&&&&&    ++++%%%%%%%%    XXXXXXXX",
"XXX.    %%%%%%%%++++    &&&&&&&&&&&&    ++++%%%%%%%%    @@XXXXXO",
"XXXX    %%%%%%%%++++    &&&&&&&&&&&&    ++++%%%%%%%%    @XXXXXOX",
"XXXX    %%%%%%%%++++    &&&&&&&&&&&&    ++++%%%%%%%%    .XXXXOXX",
"XXXX            ++++    ****&&&&****    ++++                XOXX",
"XXXX            ++++    ****&&&&****    ++++                OXXX",
"XXXX            ++++    ****&&&&****    ++++                OXXX",
"XXXX            ++++    ****&&&&****    ++++               OXXXX",
"XXXX    ########        ************        ########    $$O$    ",
"XXXX    ########        ************        ########    OO$$    ",
"XXXX    ########        ************        ########   O$$$$    ",
"XXXX    ########        ************        ########   O$$$$    ",
"XXXXXXXX    ####$$$$&&&&&&&&****&&&&&&&&$$$$####      O     $$$$",
"XXXXXXXX    ####$$$$&&&&&&&&****&&&&&&&&$$$$####      O     $$$$",
"XXXXXXXX    ####$$$$&&&&&&&&****&&&&&&&&$$$$####      O     $$$$",
"XXXXXXXX    ####$$$$&&&&&&&&****&&&&&&&&$$$$####     O      $$$$",
"XXXX    $$$$$$$$$$$$    &&&&&&&&&&&&    $$$$$$$$$$$$O   $$$$$$$$",
"XXXX    $$$$$$$$$$$$    &&&&&&&&&&&&    $$$$$$$$$$$O    $$$$$$$$",
"XXXX    $$$$$$$$$$$$    &&&&&&&&&&&&    $$$$$$$$$$O$    $$$$$$$$",
"XXXX    $$$$$$$$$$$$    &&&&&&&&&&&&    $$$$$$$$$$O$    $$$$$$$$"
};
