/* XPM */
static char *result[] = {
/* columns rows colors chars-per-pixel */
"64 64 11 1 ",
"  c black",
". c #656C17",
"X c #72751B",
"o c #787B21",
"O c #F7767A",
"+ c #7F8226",
"@ c #C28569",
"# c #B55088",
"$ c #E8B796",
"% c #C0CBDC",
"& c white",
/* pixels */
"XXXXXXXXXXXXXXXXXXXXXXXXXXXXXXXXXXXXXXXXXXXXXXXXXXXXXXXXXXXXXXXX",
"XXXXXXXXXXXXXXXXXXXXXXXXXXXXXXXXXXXXXXXXXXXXXXXXXXXXXXXXXXXXXXXX",
"XXXXXXXXXXXXXXXXXXXXXXXXXXXXXXXXXXXXXXXXXXXXXXXXXXXXXXXXXXXXXXXX",
"XXXXXXXXXXXXXXXXXXXXXXXXXXXXXXXXXXXXXXXXXXXXXXXXXXXXXXXXXXXXXXXX",
"XXXXXXXX            XXXXXXXXXXXXXXXXXXXXXXXXXXXX            XXXX",
"XXXXXXXX            XXXXXXXXXXXXXXXXXXXXXXXXXXXX            XXXX",
"XXXXXXXX            XXXXXXXXXXXXXXXXXXXXXXXXXXXX            XXXX",
"XXXXXXXX            XXXXXXXXXXXXXXXXXXXX+XXXXXXX            XXXX",
"XXXX    OOOOOOOO####                            ####OOOOOOOO    ",
"XXXX    OOOOOOOO####                            ####OOOOOOOO    ",
"XXXX    OOOOOOOO####                            ####OOOOOOOO    ",
"XXXX    OOOOOOOO####                            ####OOOOOOOO    ",
"XXXX    ####    OOOOOOOO$$$$@@@@@@@@@@@@$$$$OOOOOOOO    ####    ",
"XXXX    ####    OOOOOOOO$$$$@@@@@@@@@@@@$$$$OOOOOOOO    ####    ",
"XXXX    ####    OOOOOOOO$$$$@@@@@@@@@@@@$$$$OOOOOOOO    ####    ",
"XXXX    ####    OOOOOOOO$$$$@@@@@@@@@@@@$$$$OOOOOOOO    ####    ",
"XXXX    ########    OOOO$$$$$$$$$$$$$$$$$$$$OOOO    ########    ",
"XXXX    ########    OOOO$$$$$$$$$$$$$$$$$$$$OOOO    ########    ",
"XXXX    ########    OOOO$$$$$$$$$$$$$$$$$$$$OOOO    ########    ",
"XXXX    ########    OOOO$$$$$$$$$$$$$$$$$$$$OOOO    ########    ",
"XXXXXXXX    ####    $$$$$$$$$$$$$$$$$$$$$$$$$$$$    ####    XXXX",
"XXXXXXXX    ####    $$$$$$$$$$$$$$$$$$$$$$$$$$$$    ####    XXXX",
"XXXXXXXX    ####    $$$$$$$$$$$$$$$$$$$$$$$$$$$$    ####    XXXX",
"XXXXXXXX    ####    $$$$$$$$$$$$$$$$$$$$$$$$$$$$    ####    XXXX",
"XXXXXXXXXXXX    @@@@&&&&    $$$$@@@@$$$$    &&&&@@@@    XXXXXXXX",
"XXXXXXXXXXXX    @@@@&&&&    $$$$@@@@$$$$    &&&&@@@@    XXXXXXXX",
"XXXXXXXXXXXX    @@@@&&&&    $$$$@@@@$$$$    &&&&@@@@    XXXXXXXX",
"XXXXXXXXXXXX    @@@@&&&&    $$$$@@@@$$$$    &&&&@@@@    XXXXXXXX",
"XXXXXXXXXXXX    $$$$        $$$$OOOO$$$$        $$$$    XXXXXXXX",
"XXXXXXXXXXXX    $$$$        $$$$OOOO$$$$        $$$$    XXXXXXXX",
"XXXXXXXXXXXX    $$$$        $$$$OOOO$$$$        $$$$    XXXXXXXX",
"XXXXXXXXXXXX    $$$$        $$$$OOOO$$$$        $$$$    XXXXXXXX",
"XXXXXXXXXXXX    $$$$$$$$&&&&&&&&    &&&&&&&&$$$$$$$$    XXXXXXXX",
"XXXXXXXXXXXX    $$$$$$$$&&&&&&&&    &&&&&&&&$$$$$$$$    XXXXXXXX",
"XXXXXXXXXXXX    $$$$$$$$&&&&&&&&    &&&&&&&&$$$$$$$$    XXXXXXXX",
"XXXXXXXXXXXX    $$$$$$$$&&&&&&&&    &&&&&&&&$$$$$$$$    XXXXXXXX",
"XXXXXXXXXXXX    $$$$&&&&%%%%            %%%%&&&&$$$$    XXXXXXXX",
"XXXXXXXXXXXX    $$$$&&&&%%%%            %%%%&&&&$$$$    XXXXXXXX",
"XXXXXXXXXXXX    $$$$&&&&%%%%            %%%%&&&&$$$$    XXXXXXXX",
"XXXXXXXXXXXX    $$$$&&&&%%%%            %%%%&&&&$$$$    XXXXXXXX",
"XXXXXXXX    $$$$@@@@    %%%%%%%%%%%%%%%%%%%%    @@@@$$$$    XXXX",
"XXXXXXXX    $$$$@@@@    %%%%%%%%%%%%%%%%%%%%    @@@@$$$$    XXXX",
"XXXXXXXX    $$$$@@@@    %%%%%%%%%%%%%%%%%%%%    @@@@$$$$    X+XX",
"XXXXXXXX    $$$$@@@@    %%%%%%%%%%%%%%%%%%%%    @@@@$$$$    o.XX",
"XXXXXXXX    $$$$$$$$OOOO    %%%%%%%%%%%%    OOOO$$$$$$$$    o.XX",
"XXXXXX++    $$$$$$$$OOOO    %%%%%%%%%%%%    OOOO$$$$$$$$    .XXX",
"XXXXXXX+    $$$$$$$$OOOO    %%%%%%%%%%%%    OOOO$$$$$$$$    XXXX",
"XXXXXXX.    $$$$$$$$OOOO    %%%%%%%%%%%%    OOOO$$$$$$$$    XXXX",
"XXXX                OOOO    &&&&%%%%&&&&    OOOO            XXXX",
"XXXX                OOOO    &&&&%%%%&&&&    OOOO            XXXX",
"XXXX                OOOO    &&&&%%%%&&&&    OOOO            XXXX",
"XXXX                OOOO    &&&&%%%%&&&&    OOOO            XXXX",
"    ####    @@@@@@@@        &&&&&&&&&&&&        @@@@@@@@    XXXX",
"    ####    @@@@@@@@        &&&&&&&&&&&&        @@@@@@@@    XXXX",
"    ####    @@@@@@@@        &&&&&&&&&&&&        @@@@@@@@    XXXX",
"    ####    @@@@@@@@        &&&&&&&&&&&&        @@@@@@@@    XXXX",
"####            @@@@####%%%%%%%%&&&&%%%%%%%%####@@@@    XXXXXXXX",
"####            @@@@####%%%%%%%%&&&&%%%%%%%%####@@@@    XXXXXXXX",
"####            @@@@####%%%%%%%%&&&&%%%%%%%%####@@@@    XXXXXXXX",
"####            @@@@####%%%%%%%%&&&&%%%%%%%%####@@@@    XXXXXXXX",
"########    ############    %%%%%%%%%%%%    ############    XXXX",
"########    ############    %%%%%%%%%%%%    ############    XXXX",
"########    ############    %%%%%%%%%%%%    ############    XXXX",
"########    ############    %%%%%%%%%%%%    ############    XXXX"
};
