/* XPM */
static char *_663f4ece7a04512b8f00fc8acd4e4f8HTX6Ygr10muohB0O[] = {
/* columns rows colors chars-per-pixel */
"16 16 226 2 ",
"   c #060000",
".  c #070000",
"X  c #070001",
"o  c #070200",
"O  c #040003",
"+  c #070003",
"@  c #060203",
"#  c #080000",
"$  c #090000",
"%  c #090100",
"&  c #0A0000",
"*  c #0B0000",
"=  c #0B0100",
"-  c #0B0001",
";  c #080003",
":  c #0A0002",
">  c #0B0102",
",  c #0C0000",
"<  c #0D0101",
"1  c #0E0000",
"2  c #0F0000",
"3  c #0E0001",
"4  c #0B0004",
"5  c #0A0005",
"6  c #090006",
"7  c #0F0209",
"8  c #100000",
"9  c #110000",
"0  c #100100",
"q  c #100001",
"w  c #120000",
"e  c #130000",
"r  c #110002",
"t  c #100003",
"y  c #140100",
"u  c #160000",
"i  c #170000",
"p  c #160100",
"a  c #170001",
"s  c #160200",
"d  c #160003",
"f  c #120500",
"g  c #160400",
"h  c #110006",
"j  c #1B0000",
"k  c #1A0001",
"l  c #1A0003",
"z  c #1B0003",
"x  c #1D0003",
"c  c #1E0400",
"v  c #1F0005",
"b  c #110008",
"n  c #130008",
"m  c #11000A",
"M  c #14000B",
"N  c #15010C",
"B  c #1A000B",
"V  c #1D0009",
"C  c #19000C",
"Z  c #210000",
"A  c #240100",
"S  c #270001",
"D  c #200006",
"F  c #230006",
"G  c #2A0000",
"H  c #230008",
"J  c #30020F",
"K  c #855F6E",
"L  c #856268",
"P  c #8C626E",
"I  c #88656C",
"U  c #86696B",
"Y  c #82696D",
"T  c #836775",
"R  c #846B71",
"E  c #816A74",
"W  c #856977",
"Q  c #806C77",
"!  c #8E6B72",
"~  c #886875",
"^  c #836678",
"/  c #89667C",
"(  c #896978",
")  c #8A6878",
"_  c #837076",
"`  c #847177",
"'  c #867377",
"]  c #8A777B",
"[  c #8E7579",
"{  c #9B887A",
"}  c #A4887A",
"|  c #A88D7C",
" . c #AA8F7E",
".. c #A8927D",
"X. c #A18786",
"o. c #A18D84",
"O. c #A08F87",
"+. c #A88889",
"@. c #B98B8E",
"#. c #A7928D",
"$. c #AA918C",
"%. c #B9908E",
"&. c #BF948D",
"*. c #A98C90",
"=. c #AB8E93",
"-. c #B08D94",
";. c #BD8E94",
":. c #A49290",
">. c #AD9897",
",. c #AF9C98",
"<. c #B99796",
"1. c #B79991",
"2. c #B49894",
"3. c #B6909B",
"4. c #B2959A",
"5. c #B3949C",
"6. c #BE939C",
"7. c #C69598",
"8. c #D4B19E",
"9. c #CCBCAF",
"0. c #CEBCAE",
"q. c #D7B9A1",
"w. c #D7BBA3",
"e. c #D3B8A5",
"r. c #D5B8A6",
"t. c #D6BCA5",
"y. c #DBBAA7",
"u. c #D2B5AF",
"i. c #D2B8A9",
"p. c #D7BAAC",
"a. c #D8BEAF",
"s. c #C7BDB3",
"d. c #C7BCB6",
"f. c #C9BBB0",
"g. c #CCBBB1",
"h. c #CDB9B8",
"j. c #CCBEBD",
"k. c #D5B2B0",
"l. c #D0B7B0",
"z. c #D6B7B2",
"x. c #D1BFB3",
"c. c #DCBBB2",
"v. c #E0B3AD",
"b. c #E0B7B3",
"n. c #DDC1AC",
"m. c #CDC1B5",
"M. c #CEC0B5",
"N. c #CFC3B5",
"B. c #E1C1B6",
"V. c #C5C4C9",
"C. c #C7C4CB",
"Z. c #C6C7CB",
"A. c #C9C3CD",
"S. c #CFC4CC",
"D. c #CCC4CF",
"F. c #C7C8CA",
"G. c #CEC8CA",
"H. c #C9CACF",
"J. c #CEC8CC",
"K. c #D1C5C7",
"L. c #D0CACA",
"P. c #D3C8CC",
"I. c #CDCCD4",
"U. c #D0C9D0",
"Y. c #D0CBD2",
"T. c #D1CCD3",
"R. c #D1CFD4",
"E. c #FFF3E5",
"W. c #FFF2EE",
"Q. c #FFE4FE",
"!. c #FFEEFB",
"~. c #FFECFD",
"^. c #FFECFF",
"/. c #FFF2F1",
"(. c #FFF3F2",
"). c #F9F5F4",
"_. c #FFF6F6",
"`. c #FFF8F3",
"'. c #FFFCF2",
"]. c #FFF8F4",
"[. c #FEF9F6",
"{. c #FFF9F7",
"}. c #FDFCF7",
"|. c #FFF0F9",
" X c #FFF3F9",
".X c #FFF3FA",
"XX c #FFF2FB",
"oX c #FFF6FA",
"OX c #FFF1FD",
"+X c #FFF1FF",
"@X c #FEF4FC",
"#X c #FFF8F8",
"$X c #FFF8F9",
"%X c #FFFBF8",
"&X c #FFFBF9",
"*X c #FFF9FA",
"=X c #FFFAFB",
"-X c #FAFFFB",
";X c #FDFCF8",
":X c #FEFDF8",
">X c #FFFCFA",
",X c #FFFCFB",
"<X c #FEFDFB",
"1X c #FFFFFA",
"2X c #FFFEFB",
"3X c #FFFFFB",
"4X c #FBF9FC",
"5X c #FFF9FC",
"6X c #FFFAFD",
"7X c #FFF8FF",
"8X c #FFF9FF",
"9X c #FFFAFE",
"0X c #FFFAFF",
"qX c #FEFBFF",
"wX c #FFFBFF",
"eX c #FEFCFD",
"rX c #FFFCFD",
"tX c #FFFEFC",
"yX c #FFFEFD",
"uX c #FFFDFE",
"iX c #FEFCFF",
"pX c #FFFCFF",
"aX c #FFFDFF",
"sX c #FEFEFE",
"dX c #FFFEFF",
"fX c #FEFFFF",
/* pixels */
"}.>Xz v V oX9X$X>X[.$X_.D D z (.",
"yX- 5.3.I z w 2 - f w z L -.4.y ",
"9Xm K J ;.%.B.| ..} c.@.6.H ~ B ",
"9Xm ) P G &.8.q.w.y.v.7.S ! T N ",
"yXoXm [ j p.r.n.t.r.c.k.Z U h 9X",
"9XyX9X- o.E.c i...a.y W.$.w $X9X",
"yXyXyX- g.y y u.1.u.y 2 f.- 9X9X",
">X>XyXX m.9._.(.z (.$Xd.m.- yX9X",
";X>X9X6 s.'.K.6 X O L.`.9.g [.yX",
">XyX- m.o.2 P.D.I.V.G.- { x.X yX",
"yX).- h.z.2.X T.V.Y.2 ,.g.m.X yX",
"yX6 2 w Z <.- 9XY.@X2 >.y 2 - yX",
"w ' - :.+.j 6 yX9X9X7 w X.#.X >X",
"( B 3 2 *.Y J.H.yXA.S._ =.z >X>X",
"/ ^ N ` R ] @ F.Z.I.6 Q W E X yX",
"Q.~.!.+X.X.XyX-XyX4X9X+X~.+X9XyX"
};
