/* XPM */
static char *_eea964ce96f437c8def51dcd1992ab1Fu56D0827fiWpr7O[] = {
/* columns rows colors chars-per-pixel */
"32 32 9 1 ",
"  c None",
". c #604800",
"X c #6D4C41",
"o c #CB9500",
"O c #F8BB0B",
"+ c #B88279",
"@ c #F7D76E",
"# c #E8B6AC",
"$ c #F6E4AE",
/* pixels */
"                                ",
"                                ",
"                                ",
" .....        ....        ..... ",
" .OOo.XXXXXXXX.Oo.XXXXXXXX.OOo. ",
" .OOo.########.Oo.########.OOo. ",
" .O@o.########.@o.########.O@o. ",
" .@$O.++++++++.$O.++++++++.@$O. ",
" .$@o.########.@o.########.$@o. ",
" .@@o.++++++++.@o.++++++++.@@o. ",
" .@Oo.++++++++.Oo.++++++++.@Oo. ",
" .OOo.+++XXXX+.Oo.+XXXXXX+.OOo. ",
" .OOo.++++++++.oo.++++++++.OOo. ",
" .Ooo.+XXXX+........++XX++.Ooo. ",
" .Ooo.++++++.$$$$$@.++++++.Ooo. ",
" .ooo........@OooO@........ooo. ",
" .oooooooooo.@O..O@.oooooooooo. ",
" .oooooooooo.@O..O@.oooooooooo. ",
" ............@O..O@............ ",
" .ooo.XXXXXX.@oOOoo.XXXXXX.ooo. ",
" .ooo.XXXXXXX.oooo.XXXXXXX.ooo. ",
" .ooo.++++++XX....XX++++++.ooo. ",
" .Ooo.+XXX+++XXXXXX+++++++.Ooo. ",
" .OOo.++++++++++++++++++++.OOo. ",
" .OOo.+++++++++++XXXXXXXX+.OOo. ",
" .OOo.++++++++++++++++++++.OOo. ",
" .OOo.+++XXXXX++XXX+++++++.OOo. ",
" .OOo.++++++++++++++++++++.OOo. ",
" .OOo.XXXXXXXXXXXXXXXXXXXX.OOo. ",
" .....                    ..... ",
"                                ",
"                                "
};
