/* XPM */
static char *result[] = {
/* columns rows colors chars-per-pixel */
"64 64 8 1 ",
"  c black",
". c #656C17",
"X c #72751B",
"o c #787B21",
"O c #7F8226",
"+ c #FBF236",
"@ c #D9A066",
"# c #EEC39A",
/* pixels */
"XXXXXXXXXXXXXXXXXXXXXXXXXXXXXXXXXXXXXXXXXXXXXXXXXXXXXXXXXXXXXXXX",
"XXXXXXXXXXXXXXXXXXXXXXXXXXXXXXXXXXXXXXXXXXXXXXXXXXXXXXXXXXXXXXXX",
"XXXXXXXXXXXXXXXXXXXXXXXXXXXXXXXXXXXXXXXXXXXXXXXXXXXXXXXXXXXXXXXX",
"XXXXXXXXXXXXXXXXXXXXXXXXXXXXXXXXXXXXXXXXXXXXXXXXXXXXXXXXXXXXXXXX",
"XXXXXXXXXXXXXXXXXXXXXXXXXXXXXXXXXXXXXXXXXXXXXXXXXXXXXXXXXXXXXXXX",
"XXXXXXXXXXXXXXXXXXXXXXXXXXXXXXXXXXXXXXXXXXXXXXXXXXXXXXXXXXXXXXXX",
"XXXXXXXXXXXXXXXXXXXXXXXXXXXXXXXXXXXXXXXXXXXXXXXXXXXXXXXXXXXXXXXX",
"XXXXXXXXXXXXXXXXXXXXXXXXXXXXXXXXXXXXXXXXOXXXXXXXXXXXXXXXXXXXXXXX",
"XXXXXXXXXXXXXXXX                                XXXXXXXXXXXXXXXX",
"XXXXXXXXXXXXXXXX                                XXXXXXXXXXXXXXXX",
"XXXXXXXXXXXXXXXX                                XXXXXXXXXXXXXXXX",
"XXXXXXXXXXXXXXXX                                XXXXXXXXXXXXXXXX",
"XXXXXXXX        ++++++++++++++++++++++++++++++++        XXXXXXXX",
"XXXXXXXX        ++++++++++++++++++++++++++++++++        XXXXXXXX",
"XXXXXXXX        ++++++++++++++++++++++++++++++++        XXXXXXXX",
"XXXXXXXX        ++++++++++++++++++++++++++++++++        XXXXXXXX",
"XXXX    ++++++++++++++++++++########++++++++++++++++++++    XXXX",
"XXXX    ++++++++++++++++++++########++++++++++++++++++++    XXXX",
"XXXX    ++++++++++++++++++++########++++++++++++++++++++    XXXX",
"XXXX    ++++++++++++++++++++########++++++++++++++++++++    XXXX",
"    ++++########++++++++++++++++++++++++++++########++++++++    ",
"    ++++########++++++++++++++++++++++++++++########++++++++    ",
"    ++++########++++++++++++++++++++++++++++########++++++++    ",
"    ++++########++++++++++++++++++++++++++++########++++++++    ",
"    ++++++++++++++++++++++++++++++++++++++++++++++++++++++++    ",
"    ++++++++++++++++++++++++++++++++++++++++++++++++++++++++    ",
"    ++++++++++++++++++++++++++++++++++++++++++++++++++++++++    ",
"    ++++++++++++++++++++++++++++++++++++++++++++++++++++++++    ",
"    ++++++++++++++++########++++++++++++@@@@@@@@############    ",
"    ++++++++++++++++########++++++++++++@@@@@@@@############    ",
"    ++++++++++++++++########++++++++++++@@@@@@@@############    ",
"    ++++++++++++++++########++++++++++++@@@@@@@@############    ",
"    ####++++++++++++########++++++++++++++++@@@@####@@@@@@@@    ",
"    ####++++++++++++########++++++++++++++++@@@@####@@@@@@@@    ",
"    ####++++++++++++########++++++++++++++++@@@@####@@@@@@@@    ",
"    ####++++++++++++########++++++++++++++++@@@@####@@@@@@@@    ",
"    ############++++++++++++++++++++++++++++++++####@@@@####    ",
"    ############++++++++++++++++++++++++++++++++####@@@@####    ",
"    ############++++++++++++++++++++++++++++++++####@@@@####    ",
"    ############++++++++++++++++++++++++++++++++####@@@@####    ",
"    ####@@@@@@@@############################@@@@            XXXX",
"    ####@@@@@@@@############################@@@@            XXXX",
"    ####@@@@@@@@############################@@@@            XOXX",
"    ####@@@@@@@@############################@@@@            o.XX",
"XXXX    @@@@@@@@################@@@@@@@@####@@@@    Oo.ooXXoo.XX",
"XXXX    @@@@@@@@################@@@@@@@@####@@@@    .oo.oXX..XXX",
"XXXX    @@@@@@@@################@@@@@@@@####@@@@    X.o..XXXXXXX",
"XXXX    @@@@@@@@################@@@@@@@@####@@@@    XXXXXXXXXXXX",
"XXXXXXOo        ####@@@@@@@@####@@@@@@@@########    XXXXXXXXXXXX",
"XXXXXX.o        ####@@@@@@@@####@@@@@@@@########    XXXXXXXXXXXX",
"XXXXXXX.        ####@@@@@@@@####@@@@@@@@########    XXXXXXXXXXXX",
"XXXXXXXX        ####@@@@@@@@####@@@@@@@@########    XXXXXXXXXXXX",
"XXXXXXXXXXXXXXXX                                XXXXXXXXXXXXXXXX",
"XXXXXXXXXXXXXXXX                                XXXXXXXXXXXXXXXX",
"XXXXXXXXXXXXXXXX                                XXXXXXXXXXXXXXXX",
"XXXXXXXXXXXXXXXX                                XXXXXXXXXXXXXXXX",
"XXXXXXXXXXXXXXXXXXXXXXXXXXXXXXXXXXXXXXXXXXXXXXXXXXXXXXXXXXXXXXXX",
"XXXXXXXXXXXXXXXXXXXXXXXXXXXXXXXXXXXXXOOXXXXXXXXXXXXXXXXXXXXXXXXX",
"XXXXXXXXXXXXXXXXXXXXXXXXXXXXXXXXXXXXXXOooXXXOOXXXXXXXXXXXXXXXXXX",
"XXXXXXXXXXXXXXXXXXXXXXXXXXXXXXXXXXXXXX.ooXXoOXXXXXXXXXXXXXXXXXXX",
"XXXXXXXXXXXXXXXXXXXXXXXXXXXXXXXXXXXXXXX..XoooXXXXXXXXXXXXXXXXXXX",
"XXXXXXXXXXXXXXXXXXXXXXXXXXXXXXXXXXXXXXXXXXoo.XXXXXXXXXXXXXXXXXXX",
"XXXXXXXXXXXXXXXXXXXXXXXXXXXXXXXXXXXXXXXXXX..XXXXXXXXXXXXXXXXXXXX",
"XXXXXXXXXXXXXXXXXXXXXXXXXXXXXXXXXXXXXXXXXXXXXXXXXXXXXXXXXXXXXXXX"
};
