/* XPM */
static char *result[] = {
/* columns rows colors chars-per-pixel */
"64 64 9 1 ",
"  c black",
". c #656C17",
"X c #72751B",
"o c #787B21",
"O c #3A4466",
"+ c #7F8226",
"@ c #5A6988",
"# c #8B9BB4",
"$ c white",
/* pixels */
"XXXXXXXXXXXXXXXXXXXXXXXXXXXXXXXXXXXXXXXXXXXXXXXXXXXXXXXXXXXXXXXX",
"XXXXXXXXXXXXXXXXXXXXXXXXXXXXXXXXXXXXXXXXXXXXXXXXXXXXXXXXXXXXXXXX",
"XXXXXXXXXXXXXXXXXXXXXXXXXXXXXXXXXXXXXXXXXXXXXXXXXXXXXXXXXXXXXXXX",
"XXXXXXXXXXXXXXXXXXXXXXXXXXXXXXXXXXXXXXXXXXXXXXXXXXXXXXXXXXXXXXXX",
"XXXXXXXX            XXXXXXXXXXXXXXXXXXXXXXXX            XXXXXXXX",
"XXXXXXXX            XXXXXXXXXXXXXXXXXXXXXXXX            XXXXXXXX",
"XXXXXXXX            XXXXXXXXXXXXXXXXXXXXXXXX            XXXXXXXX",
"XXXXXXXX            XXXXXXXXXXXXXXXXXXXX+XXX            XXXXXXXX",
"XXXXXXXX    @@@@@@@@                        @@@@@@@@    XXXXXXXX",
"XXXXXXXX    @@@@@@@@                        @@@@@@@@    XXXXXXXX",
"XXXXXXXX    @@@@@@@@                        @@@@@@@@    XXXXXXXX",
"XXXXXXXX    @@@@@@@@                        @@@@@@@@    XXXXXXXX",
"XXXXXXXX    OOOO    OOOOOOOOOOOOOOOOOOOOOOOO    OOOO    XXXXXXXX",
"XXXXXXXX    OOOO    OOOOOOOOOOOOOOOOOOOOOOOO    OOOO    XXXXXXXX",
"XXXXXXXX    OOOO    OOOOOOOOOOOOOOOOOOOOOOOO    OOOO    XXXXXXXX",
"XXXXXXXX    OOOO    OOOOOOOOOOOOOOOOOOOOOOOO    OOOO    XXXXXXXX",
"XXXXXXXX    OOOO    @@@@OOOOOOOOOOOOOOOO@@@@    OOOO    XXXXXXXX",
"XXXXXXXX    OOOO    @@@@OOOOOOOOOOOOOOOO@@@@    OOOO    XXXXXXXX",
"XXXXXXXX    OOOO    @@@@OOOOOOOOOOOOOOOO@@@@    OOOO    XXXXXXXX",
"XXXXXXXX    OOOO    @@@@OOOOOOOOOOOOOOOO@@@@    OOOO    XXXXXXXX",
"XXXXXXXXXXXX    @@@@@@@@@@@@OOOOOOOO@@@@@@@@@@@@    XXXXXXXXXXXX",
"XXXXXXXXXXXX    @@@@@@@@@@@@OOOOOOOO@@@@@@@@@@@@    XXXXXXXXXXXX",
"XXXXXXXXXXXX    @@@@@@@@@@@@OOOOOOOO@@@@@@@@@@@@    XXXXXXXXXXXX",
"XXXXXXXXXXXX    @@@@@@@@@@@@OOOOOOOO@@@@@@@@@@@@    XXXXXXXXXXXX",
"XXXXXXXXXXXX        $$$$    OOOOOOOO    $$$$        XXXXXXXXXXXX",
"XXXXXXXXXXXX        $$$$    OOOOOOOO    $$$$        XXXXXXXXXXXX",
"XXXXXXXXXXXX        $$$$    OOOOOOOO    $$$$        XXXXXXXXXXXX",
"XXXXXXXXXXXX        $$$$    OOOOOOOO    $$$$        XXXXXXXXXXXX",
"XXXXXXXX    @@@@@@@@    OOOO@@@@@@@@OOOO    @@@@@@@@    XXXXXXXX",
"XXXXXXXX    @@@@@@@@    OOOO@@@@@@@@OOOO    @@@@@@@@    XXXXXXXX",
"XXXXXXXX    @@@@@@@@    OOOO@@@@@@@@OOOO    @@@@@@@@    XXXXXXXX",
"XXXXXXXX    @@@@@@@@    OOOO@@@@@@@@OOOO    @@@@@@@@    XXXXXXXX",
"XXXXXXXX        @@@@@@@@####        ####@@@@@@@@        XXXXXXXX",
"XXXXXXXX        @@@@@@@@####        ####@@@@@@@@        XXXXXXXX",
"XXXXXXXX        @@@@@@@@####        ####@@@@@@@@        XXXXXXXX",
"XXXXXXXX        @@@@@@@@####        ####@@@@@@@@        XXXXXXXX",
"XXXXXXXX    @@@@@@@@    ####@@@@@@@@####    @@@@@@@@    XXXXXXXX",
"XXXXXXXX    @@@@@@@@    ####@@@@@@@@####    @@@@@@@@    XXXXXXXX",
"XXXXXXXX    @@@@@@@@    ####@@@@@@@@####    @@@@@@@@    XXXXXXXX",
"XXXXXXXX    @@@@@@@@    ####@@@@@@@@####    @@@@@@@@    XXXXXXXX",
"XXXXXXXX        @@@@                        @@@@        X+XXXXXX",
"XXXXXXXX        @@@@                        @@@@        XooXXXXX",
"XXXXXXXX        @@@@                        @@@@        X.oXX+XX",
"XXXXXXXX        @@@@                        @@@@        o.Xoo.XX",
"XXXXXXXX    OOOOOOOO@@@@    @@@@@@@@    @@@@OOOOOOOO    oXXoo.XX",
"XXXXXX++    OOOOOOOO@@@@    @@@@@@@@    @@@@OOOOOOOO    oXX..XXX",
"XXXXXXX+    OOOOOOOO@@@@    @@@@@@@@    @@@@OOOOOOOO    .XXXXXXX",
"XXXXXXX.    OOOOOOOO@@@@    @@@@@@@@    @@@@OOOOOOOO    XXXXXXXX",
"XXXXXX+o    OOOO@@@@OOOO@@@@@@@@@@@@@@@@OOOO@@@@OOOO    XXXXXXXX",
"XXXXXX.o    OOOO@@@@OOOO@@@@@@@@@@@@@@@@OOOO@@@@OOOO    XXXXXXXX",
"XXXXXXX.    OOOO@@@@OOOO@@@@@@@@@@@@@@@@OOOO@@@@OOOO    XXXXXXXX",
"XXXXXXXX    OOOO@@@@OOOO@@@@@@@@@@@@@@@@OOOO@@@@OOOO    XXXXXXXX",
"XXXXXXXXXXXX    @@@@####    @@@@@@@@    ####@@@@    XXXXXXXXXXXX",
"XXXXXXXXXXXX    @@@@####    @@@@@@@@    ####@@@@    XXXXXXXXXXXX",
"XXXXXXXXXXXX    @@@@####    @@@@@@@@    ####@@@@    XXXXXXXXXXXX",
"XXXXXXXXXXXX    @@@@####    @@@@@@@@    ####@@@@    XXXXXXXXXXXX",
"XXXXXXXXXXXX        @@@@####        ####@@@@        XXXXXXXXXXXX",
"XXXXXXXXXXXX        @@@@####        ####@@@@        XXXXXXXXXXXX",
"XXXXXXXXXXXX        @@@@####        ####@@@@        XXXXXXXXXXXX",
"XXXXXXXXXXXX        @@@@####        ####@@@@        XXXXXXXXXXXX",
"XXXXXXXXXXXX    @@@@    ####        ####    @@@@    XXXXXXXXXXXX",
"XXXXXXXXXXXX    @@@@    ####        ####    @@@@    XXXXXXXXXXXX",
"XXXXXXXXXXXX    @@@@    ####        ####    @@@@    XXXXXXXXXXXX",
"XXXXXXXXXXXX    @@@@    ####        ####    @@@@    XXXXXXXXXXXX"
};
