/* XPM */
static char *_30996257e5d4f4baa59d7e0a5afb259FXMiM9XRqRuuzjAN[] = {
/* columns rows colors chars-per-pixel */
"32 32 9 1 ",
"  c None",
". c #3A400E",
"X c #604800",
"o c #697615",
"O c #9AAD24",
"+ c #CB9500",
"@ c #F8BB0B",
"# c #C9D47A",
"$ c #F7D76E",
/* pixels */
"                                ",
"                   XXX          ",
"                  X$X           ",
"                  X@@X          ",
"                  X@XXXX        ",
"                   X$$$$XX      ",
"                  X$$XX@@@X     ",
"                  X$XXX@@+X     ",
"                  X$XX@@@++X    ",
"                 X$@XX++XX+X    ",
"                X$@$@@XXXX+XX X ",
"                XXX@X@XXX++X+XX ",
"                X.#.++++++X++@X ",
"               XXOOoX++XXX XXX  ",
"               X$.o.X+X         ",
"             XX+++XXXX          ",
"             X$@+XX             ",
"            X+++X               ",
"           X@@+XX               ",
"          X@@+X                 ",
"         X$@+X                  ",
"        X$@+X                   ",
"       X$@+X                    ",
"      X$@+X                     ",
"     X@@+X                      ",
"    X@@+X+X                     ",
"   X@@+X+++X                    ",
"  X@@+X+@@@+X                   ",
" X@@+X+@@X+X                    ",
" X++X X@X X                     ",
"  XX   X                        ",
"                                "
};
