/* XPM */
static char *_6434e04636d4a5581eb7e4a6d34cf01Hzw5FAgY9xZTTSnc[] = {
/* columns rows colors chars-per-pixel */
"30 30 128 2 ",
"   c #606165",
".  c #66656B",
"X  c #69676C",
"o  c #66696C",
"O  c #6A6A6D",
"+  c #666670",
"@  c #676A71",
"#  c #6C6C72",
"$  c #716E75",
"%  c #7A7A7F",
"&  c #7D7D83",
"*  c #817E84",
"=  c #827F88",
"-  c #7E8085",
";  c #7F838C",
":  c #828186",
">  c #838389",
",  c #88838A",
"<  c #9FA2A7",
"1  c #A3A6AC",
"2  c #A9A7AC",
"3  c #A6A9AE",
"4  c #A7ABAE",
"5  c #A7AAAF",
"6  c #A6ABAF",
"7  c #A6A8AE",
"8  c #A3A8AE",
"9  c #A8A9AD",
"0  c #A8A9AE",
"q  c #AAA9AE",
"w  c #A9AAAE",
"e  c #ABAAAF",
"r  c #AAABAF",
"t  c #AAA8AD",
"y  c #A4A7B0",
"u  c #A4A8B1",
"i  c #A5AAB0",
"p  c #A7AAB1",
"a  c #A6ABB1",
"s  c #A6AAB3",
"d  c #A7ABB4",
"f  c #AAABB0",
"g  c #A8ABB2",
"h  c #ABABB3",
"j  c #ABACB0",
"k  c #ABACB1",
"l  c #A9ACB3",
"z  c #A8ADB3",
"x  c #AAADB2",
"c  c #ABAEB3",
"v  c #AAAFB3",
"b  c #AEADB3",
"n  c #ADAEB2",
"m  c #AEAFB3",
"M  c #AAADB4",
"N  c #ACAFB4",
"B  c #AFAEB1",
"V  c #B0AFB4",
"C  c #ABB0B4",
"Z  c #ADB0B5",
"A  c #AEB1B6",
"S  c #ACB0B9",
"D  c #B4B4B6",
"F  c #B2B2B4",
"G  c #B7B6B8",
"H  c #B9B9B9",
"J  c #F4F4F6",
"K  c gray97",
"L  c #F7F7F5",
"P  c #FCFBF7",
"I  c #F9F9F7",
"U  c #F4F8FB",
"Y  c #F7F8FA",
"T  c #F5F9FC",
"R  c #F6FAFD",
"E  c #F7FBFE",
"W  c #F7FAFF",
"Q  c #F7FCFF",
"!  c #F9F9F9",
"~  c #F8FAF9",
"^  c #FAFAF8",
"/  c #FBFBF9",
"(  c #F9FBFA",
")  c gray98",
"_  c #FBFBFB",
"`  c #FCFAFB",
"'  c #FDFCF8",
"]  c #FCFCFA",
"[  c #FDFCFA",
"{  c #FDFDFB",
"}  c #FEFDFB",
"|  c #FFFEFA",
" . c #FFFFFB",
".. c #F9FAFC",
"X. c #FAFAFC",
"o. c #FAFBFD",
"O. c #FBFBFD",
"+. c #F9FAFE",
"@. c #FDFBFC",
"#. c #FDFBFE",
"$. c #F8FCFD",
"%. c #FBFDFC",
"&. c #F9FDFF",
"*. c #FBFCFE",
"=. c #FBFCFF",
"-. c #FAFDFF",
";. c #FAFEFF",
":. c #FBFFFF",
">. c gray99",
",. c #FDFDFD",
"<. c #FEFCFD",
"1. c #FCFEFD",
"2. c #FEFEFC",
"3. c #FFFEFC",
"4. c #FFFFFD",
"5. c #FCFCFE",
"6. c #FCFDFF",
"7. c #FDFDFF",
"8. c #FFFDFE",
"9. c #FEFCFF",
"0. c #FDFEFF",
"q. c #FCFFFF",
"w. c #FEFEFE",
"e. c #FEFEFF",
"r. c #FFFEFF",
"t. c #FEFFFF",
"y. c white",
"u. c #FDFDFD",
/* pixels */
"y.y.y.y.y.y.y.y.y.y.y. . . .P  . . .y. . . . .y. . .y.y.y.y.",
"y.y.y.y.y.y.y.y.y./  .y.I  . . . .y.` `  .y.I y.y. .y.y.y.y.",
"y.y.y.y.y.y.y.y./ y.y./  . . .` +.y.y.%.I y.( / y. .y.y.y.y.",
"y.y.y.y.y.y.y.y.y.y. . .y.` y.y.y.y./ y.y./  . . .y.y.y.y.y.",
"y.y.y.y.y.y. .y.y.I / y.y.y.%.R %.%.%.y.y.%./ y.#.y.y.y.y.y.",
"y.y.y.y.y. .y. . .y.y.%.%.y.+.y.y.Q y.y.+.%.y.y.y.y.y.y.y.y.",
"y.y.y.y. .y. .y.( y.y.y.%.%.%.%.Q %.%.%.%.y.y.%.#.y.#.y.y.y.",
"y.y.y.y.y. .y. .y.y.R y.U y.R i i Q %.U y.%.y.y.y.#.y.#.y.y.",
"y.y.y.+.y.y.%.y.%.y.%.y.A 1 M 8 < S 8 i 1 z %.y.%.y. .+./ y.",
"y.y./ %.y.y.y.%.y.#.%.m < M 1 y s s < A 1 t y.( y.J #.y.y.y.",
"y.K y.y.%.Y y.y.y.+.f 3 M - = - d u M u $ - % y.y.y.y./ y./ ",
"/ y./ y.%.y.Q y.%.M > % - & > & , & & & # O , - y.y.+.y./ y.",
" . .#.y.y.%.%.%.%.8 > - > & > & & & , & O #   : % y.y.( y.y.",
"` y./ y.Q %.%.%.z & & & : > * = & & = + # o # o - y.%.y.#.y.",
" .y.%.%.%.%.C 8 1 i & = & % , & = , = . o z 6 o o %.( y.y./ ",
" .y.%.y.R 6 1 i z 1 f f = = X * = = & # # 3 3 6 - %.y.y.y.y.",
"y./ y.y.R 3 8 i d d y u + + . > : & = # X > : o # +.y.+.y.+.",
"y.y.y.y.y.M 1 z & ; u S < s @ & : & . $ . & : O 3 %.y.y.y.y.",
"#.` y.Y i & - - $ u y 1 @ u i @ N & O X O , - t f y.%.y.y.y.",
"#.y.y.y.& - > - + = = = @ ; 8 q @ & $ # t 1 t - t %.y.y.K y.",
"y.y.#.y.: & & : O * = * O * * O O > , % : O # O O O  .y./ y.",
"` / #.y.: : > & X = * * , % * $ , % % : : - O O O O y./ y.+.",
"y.#.y.` O : & O $ . = * * , * * . : : : : % : O O . / y.y.y.",
"#.y.y.` O O O t t $ O * * * * * $ 1 e q * : . O X D y.y.y./ ",
"/ y.y.y.F O O & t t O X * * * * t e * % O : o O B H '  . ./ ",
"y.y.y.` y.V D V * O O O * * * t % : O $ O . o G F P y.y. .y.",
"( %.y.%.+.y.+.D F F V V # X X X O # O B D F B B y.y.I  .L  .",
"y.y.( y.y.y.y.y.y.y.D B V G G D H B F D D / y.y./ y.y./ y.` ",
"y.y.y.( y.y./ y.y./ / y./ Y #.y.( y. ./ / y.#.#.y. .K  .y.K ",
"y.y.Y y.y.y.y.y.y./ y.y./ y./ y.y.y.y.y.y.y.y.!  .y.y./ y.y."
};
