/* XPM */
static char *_1403583978a4295fa62e225a9497a2aimQ3c4eZL1AOT3Lq[] = {
/* columns rows colors chars-per-pixel */
"32 32 142 2 ",
"   c #417340",
".  c #437445",
"X  c #487846",
"o  c #45754D",
"O  c #477849",
"+  c #46794E",
"@  c #457751",
"#  c #467950",
"$  c #487B52",
"%  c #4A7D54",
"&  c #56865C",
"*  c #598B5A",
"=  c #5C8E5B",
"-  c #58895C",
";  c #5B8D5C",
":  c #5B8C5D",
">  c #598D5F",
",  c #5B8C5F",
"<  c #5A8E5E",
"1  c #5B8F5F",
"2  c #5C8E5D",
"3  c #5E8E5C",
"4  c #5C8D5E",
"5  c #5D8F5E",
"6  c #5D8E5F",
"7  c #5F8F5F",
"8  c #5E905F",
"9  c #62925E",
"0  c #568960",
"q  c #578963",
"w  c #588B60",
"e  c #5A8A60",
"r  c #5B8B61",
"t  c #588B62",
"y  c #598C61",
"u  c #5A8E60",
"i  c #5B8F61",
"p  c #598C63",
"a  c #5A8D62",
"s  c #5B8E63",
"d  c #5C8D60",
"f  c #5D8E61",
"g  c #5E8F60",
"h  c #5C8C62",
"j  c #5D8D63",
"k  c #5E8F62",
"l  c #5A8D64",
"z  c #5B8E65",
"x  c #5A8C66",
"c  c #5B8D67",
"v  c #5D8D65",
"b  c #5C8F64",
"n  c #5E8E64",
"m  c #5F8F65",
"M  c #5C8F66",
"N  c #5E8E66",
"B  c #5F8F67",
"V  c #5C8E68",
"C  c #5D8F69",
"Z  c #5C9060",
"A  c #5D9161",
"S  c #5F9160",
"D  c #5F9061",
"F  c #5C9261",
"G  c #5C9062",
"H  c #5C9163",
"J  c #5D9163",
"K  c #5F9063",
"L  c #5E9262",
"P  c #5F9363",
"I  c #5D9065",
"U  c #5C9165",
"Y  c #5E9264",
"T  c #5F9365",
"R  c #5D9067",
"E  c #5C9167",
"W  c #5E9166",
"Q  c #5F9267",
"!  c #5E9168",
"~  c #5F9269",
"^  c #5E906A",
"/  c #5F916B",
"(  c #619161",
")  c #619360",
"_  c #609261",
"`  c #609162",
"'  c #619362",
"]  c #619263",
"[  c #629463",
"{  c #649661",
"}  c #609164",
"|  c #619265",
" . c #629364",
".. c #609066",
"X. c #619167",
"o. c #629366",
"O. c #639564",
"+. c #639465",
"@. c #609466",
"#. c #639467",
"$. c #629666",
"%. c #639767",
"&. c #649665",
"*. c #649566",
"=. c #659766",
"-. c #679966",
";. c #669867",
":. c #689866",
">. c #609068",
",. c #619169",
"<. c #609368",
"1. c #629268",
"2. c #60936A",
"3. c #62926A",
"4. c #619469",
"5. c #649568",
"6. c #669768",
"7. c #64946A",
"8. c #65956B",
"9. c #64976C",
"0. c #74A675",
"q. c #74A576",
"w. c #77A976",
"e. c #76A877",
"r. c #78AA77",
"t. c #76A778",
"y. c #74A878",
"u. c #77A978",
"i. c #77A879",
"p. c #76AA7C",
"a. c #7AAA78",
"s. c #79AB7A",
"d. c #7DAD79",
"f. c #7EAE7A",
"g. c #7FAF7B",
"h. c #7BAC7D",
"j. c #7CAE7D",
"k. c #7EAE7C",
"l. c #7CAD7E",
"z. c #7DAF7E",
"x. c #7FB180",
"c. c #7FB081",
/* pixels */
"F F U F M U m >.>.m V V ..U U F 1.l V C C V C C V ! ! M U M ` F ",
"U F ` F m M >.m >.m V U M U U U U 1.l 2.q 2.@ c ! V M ! M U F U ",
"U U M U M V >.m >.V U V ..U U U 1.r 8.r 1.o M $ ! M ! M ..M m M ",
"U U U M V M >.>.m >.! M U V U U M ` , 9.f r o M M ! M ! U U m U ",
"E ! ..M U M m m m m V 1.! M ! U : : ` : ` ..f ` F M M U M U M ` ",
"E U ! U m U m ` m m U M M ! ! U ` ;.* 9 +.` f @.m U ..m U m U M ",
"V U ` M M F ` ` ` f F M ! M V ..: a.:.3 ` [ 8 8 m ` M U U ..M ..",
"V U M M F f ` ` ` ` U F M ! V U ` f.f.7 8 8 : ` m ` m F M M M F ",
"M U U f ` ` c.; : 9 F f U U V f 7 f.f.3 F z.f ` ` f F M M M F m ",
"U f T ..` : z.` O.: 8 ..f M U U : 9 f.X s.l.9 ` ` ....M ..U U M ",
"..M @.F : +.g.` s.[ 9 ` f i ....` 9   z.x.O ..` M U M U F M m U ",
"U U U > 7 O.p.` z.` : ` F F U F ` 8 f . O * +.f U M ` M m U ..M ",
"..U F f @.` 6.: h.@...` f U M U F +.` +.5.1.U M M M M U U F F M ",
"M f U i ..: ` : ` : f ..U U l U m f 3.m & 1.U M ..F ..m F ..F ` ",
"9.f ! f ` F ` ` ..` m 1.M f 1.U c i 1.l ! ! E 1.U M M U U ` U F ",
"p.F U F ..` m ....` m m M M 1.l M 1.U M ! ! q 1.M ! m M F U F m ",
"` s.+.f ..f 1.U M U M M F U U U F f U U M M m >.M >.M ` ..F 9.0.",
"s.;.: ` ` f M U M 1.U l f F @.i U F U ` ` M m >.m >.M M @.F F @.",
"+.: +.+.M ..U ..1.0 1.i 1.U i U F ` M U m M >.M m >.M f ..U F f ",
"f ......U U U U ! ! i ..U M 1.U M M U m M M N >.>.>.M M U U Q ..",
"..M M m ..f U l 1.i c l ! 1.l ! U m m U M ` m m M M U 1.F M U M ",
"f f ..U U ..1.l l i % ! V x ! ! M ! U M U M m m m f U U U M M M ",
"! M ! M M U M U U # l % C 2.V C ! M U U F F m ` ` ` f f 1.U ..1.",
"U V 1.U M f U U ! i # c V V V V M ! M ....F ` ` ` m U F M U l M ",
"V V M ! M ! M U U ..U M i V M 1.! i M U ` F : O.` h.F i U f 1.l ",
"V / ! M ! M U M U l U ..U M M M M M ..U F F ` s.` z.` : @.U ! ! ",
"! ! M ! ! ..M ` U 1.U f @.U 9.` M U U F F : +.c.` 0...F @...l U ",
"V ! ! M M M U M 1.U f F f F : ..f M Z f @.f ` i.: 6.F ` F U ! U ",
"U M M U ! M U M ..U F F F [ ` : @.M M f @.F : @.f ` f F f M ..U ",
"m m F ..M ! m U m U U ` O.e.:.9 F M M F ......f f ..U M U U M U ",
"F U U M m F U M M U f F r.6.r.: U ! M M M U m m M m U M ! ! M ..",
"U ` m U M M U ..M f ` 9 ` r.O.: F ! ..V ! V m m m ` U V ! l 1.M "
};
